<svg xmlns="http://www.w3.org/2000/svg" viewBox="0 0 464.44 500.66"><defs><style>.cls-1{fill:#638df7;}.cls-2{fill:#1c1c22;}.cls-3{fill:#30303a;}.cls-16,.cls-4,.cls-7{fill:#fff;}.cls-5{fill:#5b5c68;}.cls-6{fill:#535260;}.cls-7{stroke:#348df5;stroke-miterlimit:10;stroke-width:2.02px;}.cls-8{fill:#348df5;}.cls-9{fill:#f7f7f7;}.cls-10{fill:#ddd;}.cls-11,.cls-12,.cls-15,.cls-16,.cls-17{font-size:3.12px;}.cls-11{fill:#2b4c56;}.cls-11,.cls-12,.cls-16,.cls-17{font-family:Roboto-Regular, Roboto;}.cls-13{font-size:4.68px;}.cls-13,.cls-14,.cls-15{font-family:Roboto-Light, Roboto;font-weight:300;}.cls-14{font-size:2.93px;}.cls-17{fill:#747474;}.cls-18{fill:#f4a086;}.cls-19{fill:#6c77d9;}.cls-19,.cls-20,.cls-21,.cls-23,.cls-28{fill-rule:evenodd;}.cls-20{fill:#222b54;}.cls-21{fill:#0a3c5f;}.cls-22{fill:#f7b690;}.cls-23{fill:#222b56;}.cls-24{fill:#3c79a6;}.cls-25{fill:#a2d1eb;}.cls-26{fill:#ad2b5e;}.cls-27{fill:#cc346f;}.cls-28{fill:#18898d;}.cls-29{fill:#097aa8;}</style></defs><title>Asset 2</title><g id="Layer_2" data-name="Layer 2"><g id="Layer_1-2" data-name="Layer 1"><g id="EOkKWi"><path class="cls-1" d="M276.52,412.33l0,.52c-.71.95-1.59.79-2.42.77q-16.53-.42-33.06-.92c-.84,0-1.72.08-2.38-.91,0-.17,0-.35,0-.52Z"/><path class="cls-1" d="M238.64,411.79l37.86,1.06c10.22,1,20.48.72,30.69,1.52,5.44.43,10.9.3,16.32.87,7.39.78,14.79,1.52,22.14,2.79a73.46,73.46,0,0,1,16.72,5c2.45,1.08,5,.92,7.52,1.1,4.71.33,9.42.79,14.13,1.18,5.76.47,11.48,1.78,17.23,2.37,4.4.45,8.74,1.37,13.09,2.14a142.6,142.6,0,0,1,14.18,3.54,188.46,188.46,0,0,1,21,7.3c4.33,1.81,8.66,3.71,12.39,7.53,3.25,3.33,3.37,7.45.45,11.52-2.42,3.36-5.5,4.46-8.56,5.51a75,75,0,0,1-16.13,3.34c-7.77.88-15.53,1.59-23.32,2-8.93.49-17.82,0-26.72-.45-7.52-.35-15-1.6-22.5-2.65-4.79-.67-9.58-1.38-14.38-2-7-.9-14-1.83-21.05-2.67-6.24-.75-12.49-1.39-18.74-2.13a202.2,202.2,0,0,0-24-1,46.51,46.51,0,0,0-26.08,8.14c-11,7.29-22.39,13.31-34.41,16a161.18,161.18,0,0,1-19.24,3.3c-7,.71-14.06,1.76-21.1,2.45-4.58.44-9.18.42-13.77.73-18,1.24-36-.45-54-.36a120.21,120.21,0,0,0-20.22,1.79c-9.71,1.71-19.37,4.05-29.08,5.51-4.86.74-9.73,1.4-14.61,1.86-7.72.72-15.44,1.85-23.17,1.3a38.53,38.53,0,0,1-23-9.55A27.87,27.87,0,0,1,.92,480.28c-1.39-3.38-1.25-6.08.74-8.65,2.43-3.14,5.41-4.41,8.3-5.91a167.43,167.43,0,0,1,21.85-9.34c8.77-3.07,17.64-5.48,26.44-8.37,6.44-2.11,12.79-4.91,19.27-6.72,6.87-1.92,12.93-6.67,19.25-10.52a63.68,63.68,0,0,1,20.82-8.26c6.75-1.34,13.5-2.85,20.27-4,5-.84,10-1.89,15.11-2.4s10.09-1.48,15.13-2.06a105,105,0,0,1,11-.78c7.2-.08,14.39-.55,21.59-.59,6.53,0,13.07-.29,19.6-.47C226.43,412.07,232.54,411.94,238.64,411.79Z"/></g><rect class="cls-2" x="134.16" y="75.14" width="194.66" height="374.17" rx="27.74"/><path class="cls-3" d="M301.07,75.14H161.9a27.74,27.74,0,0,0-27.74,27.74V421.56A27.74,27.74,0,0,0,161.9,449.3L328.82,102.88A27.75,27.75,0,0,0,301.07,75.14Z"/><path class="cls-4" d="M301.07,84.94H269.13v5.17a9.48,9.48,0,0,1-9.48,9.48H203.32a9.49,9.49,0,0,1-9.48-9.48V84.94H161.9a18,18,0,0,0-18,17.94V421.56a18,18,0,0,0,18,17.95H301.07A18,18,0,0,0,319,421.56V102.88A18,18,0,0,0,301.07,84.94Z"/><path class="cls-5" d="M301.07,445.3H161.9a23.77,23.77,0,0,1-23.74-23.74V102.88A23.76,23.76,0,0,1,161.9,79.15H301.07a23.76,23.76,0,0,1,23.74,23.73V421.56A23.77,23.77,0,0,1,301.07,445.3ZM161.9,80a22.87,22.87,0,0,0-22.85,22.84V421.56a22.88,22.88,0,0,0,22.85,22.85H301.07a22.88,22.88,0,0,0,22.85-22.85V102.88A22.87,22.87,0,0,0,301.07,80Z"/><path class="cls-6" d="M229.4,84.37H217.87a2.79,2.79,0,1,0,0,5.57H229.4a2.79,2.79,0,0,0,0-5.57Z"/><path class="cls-6" d="M245.11,84.37h-3a2.79,2.79,0,1,0,0,5.57h3a2.79,2.79,0,0,0,0-5.57Z"/><polygon class="cls-3" points="294.34 90.24 294.34 91.86 292.76 91.86 292.76 94.19 294.34 94.19 294.34 95.81 304.48 95.81 304.48 90.24 294.34 90.24"/><rect class="cls-3" x="284.51" y="88.9" width="1.53" height="6.91"/><rect class="cls-3" x="281.67" y="90.11" width="1.53" height="5.7"/><rect class="cls-3" x="278.83" y="91.31" width="1.53" height="4.5"/><rect class="cls-3" x="275.99" y="92.35" width="1.53" height="3.46"/><rect class="cls-7" x="153.35" y="153.39" width="156.27" height="247.26"/><rect class="cls-4" x="162.55" y="212.96" width="69.17" height="5.99"/><rect class="cls-8" x="162.55" y="252.72" width="7.69" height="6.21"/><rect class="cls-8" x="170.23" y="252.72" width="47.3" height="6.21"/><rect class="cls-8" x="217.53" y="252.72" width="19.31" height="6.21"/><rect class="cls-8" x="236.84" y="252.72" width="21.28" height="6.21"/><rect class="cls-8" x="258.12" y="252.72" width="21.28" height="6.21"/><rect class="cls-8" x="279.41" y="252.72" width="21.28" height="6.21"/><rect class="cls-8" x="279.41" y="265.13" width="21.28" height="0.22"/><rect class="cls-8" x="279.41" y="271.34" width="21.28" height="0.22"/><rect class="cls-8" x="258.12" y="265.13" width="21.28" height="0.22"/><rect class="cls-8" x="258.12" y="271.34" width="21.28" height="0.22"/><rect class="cls-8" x="236.84" y="265.13" width="21.28" height="0.22"/><rect class="cls-8" x="236.84" y="271.34" width="21.28" height="0.22"/><rect class="cls-8" x="217.53" y="265.13" width="19.31" height="0.22"/><rect class="cls-8" x="217.53" y="271.34" width="19.31" height="0.22"/><rect class="cls-8" x="170.23" y="265.13" width="47.3" height="0.22"/><rect class="cls-8" x="170.23" y="271.34" width="47.3" height="0.22"/><rect class="cls-8" x="162.55" y="265.13" width="7.69" height="0.22"/><rect class="cls-8" x="162.55" y="271.34" width="7.69" height="0.22"/><rect class="cls-8" x="279.41" y="258.92" width="21.28" height="0.22"/><rect class="cls-8" x="279.41" y="265.13" width="21.28" height="0.22"/><rect class="cls-8" x="258.12" y="258.92" width="21.28" height="0.22"/><rect class="cls-8" x="258.12" y="265.13" width="21.28" height="0.22"/><rect class="cls-8" x="236.84" y="258.92" width="21.28" height="0.22"/><rect class="cls-8" x="236.84" y="265.13" width="21.28" height="0.22"/><rect class="cls-8" x="217.53" y="258.92" width="19.31" height="0.22"/><rect class="cls-8" x="217.53" y="265.13" width="19.31" height="0.22"/><rect class="cls-8" x="170.23" y="258.92" width="47.3" height="0.22"/><rect class="cls-8" x="170.23" y="265.13" width="47.3" height="0.22"/><rect class="cls-8" x="162.55" y="258.92" width="7.69" height="0.22"/><rect class="cls-8" x="162.55" y="265.13" width="7.69" height="0.22"/><rect class="cls-8" x="279.41" y="252.72" width="21.28" height="0.22"/><rect class="cls-8" x="279.41" y="258.92" width="21.28" height="0.22"/><rect class="cls-8" x="258.12" y="252.72" width="21.28" height="0.22"/><rect class="cls-8" x="258.12" y="258.92" width="21.28" height="0.22"/><rect class="cls-8" x="236.84" y="252.72" width="21.28" height="0.22"/><rect class="cls-8" x="236.84" y="258.92" width="21.28" height="0.22"/><rect class="cls-8" x="217.53" y="252.72" width="19.31" height="0.22"/><rect class="cls-8" x="217.53" y="258.92" width="19.31" height="0.22"/><rect class="cls-8" x="170.23" y="252.72" width="47.3" height="0.22"/><rect class="cls-8" x="170.23" y="258.92" width="47.3" height="0.22"/><rect class="cls-8" x="162.55" y="252.72" width="7.69" height="0.22"/><rect class="cls-8" x="162.55" y="258.92" width="7.69" height="0.22"/><rect class="cls-9" x="162.55" y="289.91" width="65.82" height="5.99"/><rect class="cls-8" x="235.26" y="289.91" width="30.35" height="5.99"/><rect class="cls-8" x="265.61" y="289.91" width="35.27" height="5.99"/><rect class="cls-10" x="265.61" y="307.87" width="35.27" height="0.22"/><rect class="cls-10" x="235.26" y="307.87" width="30.35" height="0.22"/><rect class="cls-10" x="265.61" y="307.87" width="35.27" height="0.22"/><rect class="cls-10" x="235.26" y="307.87" width="30.35" height="0.22"/><text class="cls-11" transform="translate(260.53 315.85) scale(0.89 1)">F</text><text class="cls-11" transform="translate(261.88 315.85) scale(0.89 1)">o</text><text class="cls-11" transform="translate(263.51 315.85) scale(0.89 1)">r</text><text class="cls-11" transform="translate(264.47 315.85) scale(0.89 1)">,</text><text class="cls-11" transform="translate(265.08 315.85) scale(0.89 1)"> </text><text class="cls-11" transform="translate(265.83 315.85) scale(0.89 1)">C</text><text class="cls-11" transform="translate(267.55 315.85) scale(0.89 1)">h</text><text class="cls-11" transform="translate(269.12 315.85) scale(0.89 1)">e</text><text class="cls-11" transform="translate(270.57 315.85) scale(0.89 1)">q</text><text class="cls-11" transform="translate(272.21 315.85) scale(0.89 1)">u</text><text class="cls-11" transform="translate(273.78 315.85) scale(0.89 1)">e</text><text class="cls-12" transform="translate(254.94 338.24) scale(0.89 1)">A</text><text class="cls-12" transform="translate(256.74 338.24) scale(0.89 1)">u</text><text class="cls-12" transform="translate(258.31 338.24) scale(0.89 1)">t</text><text class="cls-12" transform="translate(259.25 338.24) scale(0.89 1)">h</text><text class="cls-12" transform="translate(260.82 338.24) scale(0.89 1)">o</text><text class="cls-12" transform="translate(262.44 338.24) scale(0.89 1)">r</text><text class="cls-12" transform="translate(263.41 338.24) scale(0.89 1)">i</text><text class="cls-12" transform="translate(264.08 338.24) scale(0.89 1)">z</text><text class="cls-12" transform="translate(265.33 338.24) scale(0.89 1)">e</text><text class="cls-12" transform="translate(266.78 338.24) scale(0.89 1)">d</text><text class="cls-12" transform="translate(268.42 338.24) scale(0.89 1)"> </text><text class="cls-12" transform="translate(269.18 338.24) scale(0.89 1)">S</text><text class="cls-12" transform="translate(270.65 338.24) scale(0.89 1)">i</text><text class="cls-12" transform="translate(271.32 338.24) scale(0.89 1)">g</text><text class="cls-12" transform="translate(272.96 338.24) scale(0.89 1)">n</text><text class="cls-12" transform="translate(274.53 338.24) scale(0.89 1)">a</text><text class="cls-12" transform="translate(275.94 338.24) scale(0.89 1)">t</text><text class="cls-12" transform="translate(276.88 338.24) scale(0.89 1)">o</text><text class="cls-12" transform="translate(278.51 338.24) scale(0.89 1)">r</text><text class="cls-12" transform="translate(279.47 338.24) scale(0.89 1)">y</text><text class="cls-13" transform="translate(163.75 169.21) scale(0.89 1)">C</text><text class="cls-13" transform="translate(166.35 169.21) scale(0.89 1)">h</text><text class="cls-13" transform="translate(168.86 169.21) scale(0.89 1)">e</text><text class="cls-13" transform="translate(171.11 169.21) scale(0.89 1)">q</text><text class="cls-13" transform="translate(173.69 169.21) scale(0.89 1)">u</text><text class="cls-13" transform="translate(176.2 169.21) scale(0.89 1)">e</text><text class="cls-14" transform="translate(163.75 174.31) scale(0.89 1)">P</text><text class="cls-14" transform="translate(165.21 174.31) scale(0.89 1)">h</text><text class="cls-14" transform="translate(166.68 174.31) scale(0.89 1)">o</text><text class="cls-14" transform="translate(168.21 174.31) scale(0.89 1)">n</text><text class="cls-14" transform="translate(169.68 174.31) scale(0.89 1)">e</text><text class="cls-14" transform="translate(171.04 174.31) scale(0.89 1)"> </text><text class="cls-14" transform="translate(171.75 174.31) scale(0.89 1)">n</text><text class="cls-14" transform="translate(173.23 174.31) scale(0.89 1)">o</text><text class="cls-14" transform="translate(174.75 174.31) scale(0.89 1)">.</text><text class="cls-14" transform="translate(175.31 174.31) scale(0.89 1)">:</text><text class="cls-14" transform="translate(175.88 174.31) scale(0.89 1)"> </text><text class="cls-14" transform="translate(176.59 174.31) scale(0.89 1)">8</text><text class="cls-14" transform="translate(177.99 174.31) scale(0.89 1)">0</text><text class="cls-14" transform="translate(179.4 174.31) scale(0.89 1)">5</text><text class="cls-14" transform="translate(180.8 174.31) scale(0.89 1)">0</text><text class="cls-14" transform="translate(182.2 174.31) scale(0.89 1)">8</text><text class="cls-14" transform="translate(183.6 174.31) scale(0.89 1)">3</text><text class="cls-14" transform="translate(185 174.31) scale(0.89 1)">0</text><text class="cls-14" transform="translate(186.41 174.31) scale(0.89 1)">5</text><text class="cls-14" transform="translate(187.81 174.31) scale(0.89 1)">2</text><text class="cls-14" transform="translate(189.21 174.31) scale(0.89 1)">4</text><text class="cls-15" transform="translate(163.33 217.17) scale(0.89 1)">B</text><text class="cls-15" transform="translate(165.11 217.17) scale(0.89 1)">i</text><text class="cls-15" transform="translate(165.9 217.17) scale(0.89 1)">l</text><text class="cls-15" transform="translate(166.69 217.17) scale(0.89 1)">l</text><text class="cls-15" transform="translate(167.48 217.17) scale(0.89 1)"> </text><text class="cls-15" transform="translate(168.25 217.17) scale(0.89 1)">T</text><text class="cls-15" transform="translate(169.87 217.17) scale(0.89 1)">o</text><text class="cls-15" transform="translate(171.57 217.17) scale(0.89 1)">:</text><text class="cls-15" transform="translate(163.33 223.16) scale(0.89 1)">P</text><text class="cls-15" transform="translate(165.04 223.16) scale(0.89 1)">a</text><text class="cls-15" transform="translate(166.53 223.16) scale(0.89 1)">r</text><text class="cls-15" transform="translate(167.63 223.16) scale(0.89 1)">t</text><text class="cls-15" transform="translate(168.72 223.16) scale(0.89 1)">y</text><text class="cls-15" transform="translate(170.21 223.16) scale(0.89 1)">1</text><text class="cls-15" transform="translate(163.33 229.14) scale(0.89 1)">#</text><text class="cls-15" transform="translate(164.97 229.14) scale(0.89 1)">4</text><text class="cls-15" transform="translate(166.47 229.14) scale(0.89 1)">1</text><text class="cls-15" transform="translate(167.97 229.14) scale(0.89 1)"> </text><text class="cls-15" transform="translate(168.73 229.14) scale(0.89 1)">C</text><text class="cls-15" transform="translate(170.44 229.14) scale(0.89 1)">l</text><text class="cls-15" transform="translate(171.12 229.14) scale(0.89 1)">a</text><text class="cls-15" transform="translate(172.53 229.14) scale(0.89 1)">s</text><text class="cls-15" transform="translate(173.71 229.14) scale(0.89 1)">s</text><text class="cls-15" transform="translate(174.88 229.14) scale(0.89 1)">i</text><text class="cls-15" transform="translate(175.55 229.14) scale(0.89 1)">c</text><text class="cls-15" transform="translate(176.83 229.14) scale(0.89 1)"> </text><text class="cls-15" transform="translate(177.6 229.14) scale(0.89 1)">C</text><text class="cls-15" transform="translate(179.31 229.14) scale(0.89 1)">r</text><text class="cls-15" transform="translate(180.28 229.14) scale(0.89 1)">e</text><text class="cls-15" transform="translate(181.73 229.14) scale(0.89 1)">s</text><text class="cls-15" transform="translate(182.91 229.14) scale(0.89 1)">t</text><text class="cls-15" transform="translate(163.33 235.13) scale(0.89 1)">C</text><text class="cls-15" transform="translate(165.05 235.13) scale(0.89 1)">o</text><text class="cls-15" transform="translate(166.68 235.13) scale(0.89 1)">n</text><text class="cls-15" transform="translate(168.25 235.13) scale(0.89 1)">t</text><text class="cls-15" transform="translate(169.19 235.13) scale(0.89 1)">a</text><text class="cls-15" transform="translate(170.6 235.13) scale(0.89 1)">c</text><text class="cls-15" transform="translate(171.88 235.13) scale(0.89 1)">t</text><text class="cls-15" transform="translate(172.82 235.13) scale(0.89 1)"> </text><text class="cls-15" transform="translate(173.58 235.13) scale(0.89 1)">N</text><text class="cls-15" transform="translate(175.66 235.13) scale(0.89 1)">o</text><text class="cls-15" transform="translate(177.28 235.13) scale(0.89 1)">.</text><text class="cls-15" transform="translate(177.88 235.13) scale(0.89 1)">:</text><text class="cls-15" transform="translate(178.49 235.13) scale(0.89 1)"> </text><text class="cls-15" transform="translate(179.25 235.13) scale(0.89 1)">8</text><text class="cls-15" transform="translate(180.74 235.13) scale(0.89 1)">0</text><text class="cls-15" transform="translate(182.24 235.13) scale(0.89 1)">5</text><text class="cls-15" transform="translate(183.73 235.13) scale(0.89 1)">0</text><text class="cls-15" transform="translate(185.23 235.13) scale(0.89 1)">8</text><text class="cls-15" transform="translate(186.72 235.13) scale(0.89 1)">3</text><text class="cls-15" transform="translate(188.22 235.13) scale(0.89 1)">0</text><text class="cls-15" transform="translate(189.72 235.13) scale(0.89 1)">5</text><text class="cls-15" transform="translate(191.21 235.13) scale(0.89 1)">2</text><text class="cls-15" transform="translate(192.71 235.13) scale(0.89 1)">4</text><text class="cls-15" transform="translate(163.33 241.12) scale(0.89 1)">S</text><text class="cls-15" transform="translate(164.81 241.12) scale(0.89 1)">t</text><text class="cls-15" transform="translate(165.75 241.12) scale(0.89 1)">a</text><text class="cls-15" transform="translate(167.16 241.12) scale(0.89 1)">t</text><text class="cls-15" transform="translate(168.1 241.12) scale(0.89 1)">e</text><text class="cls-15" transform="translate(169.55 241.12) scale(0.89 1)">:</text><text class="cls-15" transform="translate(170.15 241.12) scale(0.89 1)"> </text><text class="cls-15" transform="translate(170.91 241.12) scale(0.89 1)">2</text><text class="cls-15" transform="translate(172.41 241.12) scale(0.89 1)">2</text><text class="cls-15" transform="translate(173.9 241.12) scale(0.89 1)">-</text><text class="cls-15" transform="translate(175.01 241.12) scale(0.89 1)">C</text><text class="cls-15" transform="translate(176.73 241.12) scale(0.89 1)">h</text><text class="cls-15" transform="translate(178.3 241.12) scale(0.89 1)">a</text><text class="cls-15" transform="translate(179.71 241.12) scale(0.89 1)">t</text><text class="cls-15" transform="translate(180.65 241.12) scale(0.89 1)">t</text><text class="cls-15" transform="translate(181.59 241.12) scale(0.89 1)">i</text><text class="cls-15" transform="translate(182.27 241.12) scale(0.89 1)">s</text><text class="cls-15" transform="translate(183.44 241.12) scale(0.89 1)">g</text><text class="cls-15" transform="translate(185.08 241.12) scale(0.89 1)">a</text><text class="cls-15" transform="translate(186.49 241.12) scale(0.89 1)">r</text><text class="cls-15" transform="translate(187.46 241.12) scale(0.89 1)">h</text><text class="cls-15" transform="translate(261.75 224.04) scale(0.89 1)">P</text><text class="cls-15" transform="translate(263.31 224.04) scale(0.89 1)">l</text><text class="cls-15" transform="translate(263.98 224.04) scale(0.89 1)">a</text><text class="cls-15" transform="translate(265.39 224.04) scale(0.89 1)">c</text><text class="cls-15" transform="translate(266.67 224.04) scale(0.89 1)">e</text><text class="cls-15" transform="translate(268.12 224.04) scale(0.89 1)"> </text><text class="cls-15" transform="translate(268.88 224.04) scale(0.89 1)">o</text><text class="cls-15" transform="translate(270.51 224.04) scale(0.89 1)">f</text><text class="cls-15" transform="translate(271.38 224.04) scale(0.89 1)"> </text><text class="cls-15" transform="translate(272.14 224.04) scale(0.89 1)">s</text><text class="cls-15" transform="translate(273.31 224.04) scale(0.89 1)">u</text><text class="cls-15" transform="translate(274.88 224.04) scale(0.89 1)">p</text><text class="cls-15" transform="translate(276.52 224.04) scale(0.89 1)">p</text><text class="cls-15" transform="translate(278.15 224.04) scale(0.89 1)">l</text><text class="cls-15" transform="translate(278.82 224.04) scale(0.89 1)">y</text><text class="cls-15" transform="translate(280.16 224.04) scale(0.89 1)">:</text><text class="cls-15" transform="translate(280.76 224.04) scale(0.89 1)"> </text><text class="cls-15" transform="translate(281.53 224.04) scale(0.89 1)">2</text><text class="cls-15" transform="translate(283.02 224.04) scale(0.89 1)">2</text><text class="cls-15" transform="translate(284.52 224.04) scale(0.89 1)">-</text><text class="cls-15" transform="translate(285.63 224.04) scale(0.89 1)">C</text><text class="cls-15" transform="translate(287.34 224.04) scale(0.89 1)">h</text><text class="cls-15" transform="translate(288.91 224.04) scale(0.89 1)">a</text><text class="cls-15" transform="translate(290.33 224.04) scale(0.89 1)">t</text><text class="cls-15" transform="translate(291.27 224.04) scale(0.89 1)">t</text><text class="cls-15" transform="translate(292.2 224.04) scale(0.89 1)">i</text><text class="cls-15" transform="translate(292.88 224.04) scale(0.89 1)">s</text><text class="cls-15" transform="translate(294.06 224.04) scale(0.89 1)">g</text><text class="cls-15" transform="translate(295.69 224.04) scale(0.89 1)">a</text><text class="cls-15" transform="translate(297.1 224.04) scale(0.89 1)">r</text><text class="cls-15" transform="translate(298.06 224.04) scale(0.89 1)">h</text><text class="cls-15" transform="translate(281.74 229.14) scale(0.89 1)">I</text><text class="cls-15" transform="translate(282.62 229.14) scale(0.89 1)">n</text><text class="cls-15" transform="translate(284.29 229.14) scale(0.89 1)">v</text><text class="cls-15" transform="translate(285.8 229.14) scale(0.89 1)">o</text><text class="cls-15" transform="translate(287.5 229.14) scale(0.89 1)">i</text><text class="cls-15" transform="translate(288.28 229.14) scale(0.89 1)">c</text><text class="cls-15" transform="translate(289.62 229.14) scale(0.89 1)">e</text><text class="cls-15" transform="translate(291.12 229.14) scale(0.89 1)"> </text><text class="cls-15" transform="translate(291.88 229.14) scale(0.89 1)">N</text><text class="cls-15" transform="translate(294.07 229.14) scale(0.89 1)">o</text><text class="cls-15" transform="translate(295.77 229.14) scale(0.89 1)">.</text><text class="cls-15" transform="translate(296.52 229.14) scale(0.89 1)">:</text><text class="cls-15" transform="translate(297.27 229.14) scale(0.89 1)"> </text><text class="cls-15" transform="translate(298.04 229.14) scale(0.89 1)">3</text><text class="cls-15" transform="translate(276.99 234.02) scale(0.89 1)">D</text><text class="cls-15" transform="translate(279.03 234.02) scale(0.89 1)">a</text><text class="cls-15" transform="translate(280.52 234.02) scale(0.89 1)">t</text><text class="cls-15" transform="translate(281.6 234.02) scale(0.89 1)">e</text><text class="cls-15" transform="translate(283.11 234.02) scale(0.89 1)">:</text><text class="cls-15" transform="translate(283.86 234.02) scale(0.89 1)"> </text><text class="cls-15" transform="translate(284.62 234.02) scale(0.89 1)">2</text><text class="cls-15" transform="translate(286.22 234.02) scale(0.89 1)">2</text><text class="cls-15" transform="translate(287.81 234.02) scale(0.89 1)">-</text><text class="cls-15" transform="translate(288.94 234.02) scale(0.89 1)">0</text><text class="cls-15" transform="translate(290.53 234.02) scale(0.89 1)">3</text><text class="cls-15" transform="translate(292.13 234.02) scale(0.89 1)">-</text><text class="cls-15" transform="translate(293.25 234.02) scale(0.89 1)">2</text><text class="cls-15" transform="translate(294.85 234.02) scale(0.89 1)">0</text><text class="cls-15" transform="translate(296.44 234.02) scale(0.89 1)">1</text><text class="cls-15" transform="translate(298.04 234.02) scale(0.89 1)">9</text><text class="cls-16" transform="translate(163.33 257.15) scale(0.89 1)">#</text><text class="cls-16" transform="translate(171.02 257.15) scale(0.89 1)">I</text><text class="cls-16" transform="translate(171.9 257.15) scale(0.89 1)">t</text><text class="cls-16" transform="translate(172.98 257.15) scale(0.89 1)">e</text><text class="cls-16" transform="translate(174.48 257.15) scale(0.89 1)">m</text><text class="cls-16" transform="translate(177.02 257.15) scale(0.89 1)"> </text><text class="cls-16" transform="translate(177.79 257.15) scale(0.89 1)">n</text><text class="cls-16" transform="translate(179.46 257.15) scale(0.89 1)">a</text><text class="cls-16" transform="translate(180.96 257.15) scale(0.89 1)">m</text><text class="cls-16" transform="translate(183.5 257.15) scale(0.89 1)">e</text><text class="cls-16" transform="translate(218.32 257.15) scale(0.89 1)">H</text><text class="cls-16" transform="translate(220.44 257.15) scale(0.89 1)">S</text><text class="cls-16" transform="translate(222 257.15) scale(0.89 1)">N</text><text class="cls-16" transform="translate(224.19 257.15) scale(0.89 1)">/</text><text class="cls-16" transform="translate(225.42 257.15) scale(0.89 1)">S</text><text class="cls-16" transform="translate(226.97 257.15) scale(0.89 1)">A</text><text class="cls-16" transform="translate(228.92 257.15) scale(0.89 1)">C</text><text class="cls-16" transform="translate(245.94 257.15) scale(0.89 1)">Q</text><text class="cls-16" transform="translate(248.05 257.15) scale(0.89 1)">u</text><text class="cls-16" transform="translate(249.72 257.15) scale(0.89 1)">a</text><text class="cls-16" transform="translate(251.22 257.15) scale(0.89 1)">n</text><text class="cls-16" transform="translate(252.89 257.15) scale(0.89 1)">t</text><text class="cls-16" transform="translate(253.98 257.15) scale(0.89 1)">i</text><text class="cls-16" transform="translate(254.76 257.15) scale(0.89 1)">t</text><text class="cls-16" transform="translate(255.84 257.15) scale(0.89 1)">y</text><text class="cls-16" transform="translate(265.73 257.15) scale(0.89 1)">P</text><text class="cls-16" transform="translate(267.44 257.15) scale(0.89 1)">r</text><text class="cls-16" transform="translate(268.54 257.15) scale(0.89 1)">i</text><text class="cls-16" transform="translate(269.33 257.15) scale(0.89 1)">c</text><text class="cls-16" transform="translate(270.67 257.15) scale(0.89 1)">e</text><text class="cls-16" transform="translate(272.16 257.15) scale(0.89 1)">/</text><text class="cls-16" transform="translate(273.4 257.15) scale(0.89 1)">u</text><text class="cls-16" transform="translate(275.07 257.15) scale(0.89 1)">n</text><text class="cls-16" transform="translate(276.75 257.15) scale(0.89 1)">i</text><text class="cls-16" transform="translate(277.54 257.15) scale(0.89 1)">t</text><text class="cls-16" transform="translate(289.28 257.15) scale(0.89 1)">A</text><text class="cls-16" transform="translate(291.23 257.15) scale(0.89 1)">m</text><text class="cls-16" transform="translate(293.77 257.15) scale(0.89 1)">o</text><text class="cls-16" transform="translate(295.47 257.15) scale(0.89 1)">u</text><text class="cls-16" transform="translate(297.15 257.15) scale(0.89 1)">n</text><text class="cls-16" transform="translate(298.82 257.15) scale(0.89 1)">t</text><text class="cls-12" transform="translate(163.33 263.36) scale(0.89 1)">1</text><text class="cls-12" transform="translate(171.1 263.36) scale(0.89 1)">I</text><text class="cls-12" transform="translate(171.83 263.36) scale(0.89 1)">t</text><text class="cls-12" transform="translate(172.78 263.36) scale(0.89 1)">e</text><text class="cls-12" transform="translate(174.23 263.36) scale(0.89 1)">m</text><text class="cls-12" transform="translate(176.61 263.36) scale(0.89 1)">1</text><text class="cls-12" transform="translate(218.32 263.36) scale(0.89 1)">0</text><text class="cls-12" transform="translate(219.81 263.36) scale(0.89 1)">0</text><text class="cls-12" transform="translate(221.31 263.36) scale(0.89 1)">1</text><text class="cls-12" transform="translate(255.84 263.36) scale(0.89 1)">1</text><text class="cls-12" transform="translate(266.19 263.36) scale(0.89 1)">₹</text><text class="cls-12" transform="translate(267.68 263.36) scale(0.89 1)"> </text><text class="cls-12" transform="translate(268.45 263.36) scale(0.89 1)">1</text><text class="cls-12" transform="translate(269.94 263.36) scale(0.89 1)">,</text><text class="cls-12" transform="translate(270.54 263.36) scale(0.89 1)">0</text><text class="cls-12" transform="translate(272.04 263.36) scale(0.89 1)">0</text><text class="cls-12" transform="translate(273.53 263.36) scale(0.89 1)">0</text><text class="cls-12" transform="translate(275.03 263.36) scale(0.89 1)">.</text><text class="cls-12" transform="translate(275.63 263.36) scale(0.89 1)">0</text><text class="cls-12" transform="translate(277.13 263.36) scale(0.89 1)">0</text><text class="cls-12" transform="translate(287.47 263.36) scale(0.89 1)">₹</text><text class="cls-12" transform="translate(288.97 263.36) scale(0.89 1)"> </text><text class="cls-12" transform="translate(289.73 263.36) scale(0.89 1)">1</text><text class="cls-12" transform="translate(291.22 263.36) scale(0.89 1)">,</text><text class="cls-12" transform="translate(291.82 263.36) scale(0.89 1)">0</text><text class="cls-12" transform="translate(293.32 263.36) scale(0.89 1)">0</text><text class="cls-12" transform="translate(294.81 263.36) scale(0.89 1)">0</text><text class="cls-12" transform="translate(296.31 263.36) scale(0.89 1)">.</text><text class="cls-12" transform="translate(296.91 263.36) scale(0.89 1)">0</text><text class="cls-12" transform="translate(298.41 263.36) scale(0.89 1)">0</text><text class="cls-12" transform="translate(171.02 269.57) scale(0.89 1)">T</text><text class="cls-12" transform="translate(172.64 269.57) scale(0.89 1)">o</text><text class="cls-12" transform="translate(174.34 269.57) scale(0.89 1)">t</text><text class="cls-12" transform="translate(175.42 269.57) scale(0.89 1)">a</text><text class="cls-12" transform="translate(176.91 269.57) scale(0.89 1)">l</text><text class="cls-12" transform="translate(255.74 269.57) scale(0.89 1)">1</text><text class="cls-12" transform="translate(286.46 269.57) scale(0.89 1)">₹</text><text class="cls-12" transform="translate(288.06 269.57) scale(0.89 1)"> </text><text class="cls-12" transform="translate(288.82 269.57) scale(0.89 1)">1</text><text class="cls-12" transform="translate(290.42 269.57) scale(0.89 1)">,</text><text class="cls-12" transform="translate(291.17 269.57) scale(0.89 1)">0</text><text class="cls-12" transform="translate(292.77 269.57) scale(0.89 1)">0</text><text class="cls-12" transform="translate(294.36 269.57) scale(0.89 1)">0</text><text class="cls-12" transform="translate(295.96 269.57) scale(0.89 1)">.</text><text class="cls-12" transform="translate(296.71 269.57) scale(0.89 1)">0</text><text class="cls-12" transform="translate(298.31 269.57) scale(0.89 1)">0</text><text class="cls-17" transform="translate(163.33 288.14) scale(0.89 1)">I</text><text class="cls-17" transform="translate(164.22 288.14) scale(0.89 1)">N</text><text class="cls-17" transform="translate(166.41 288.14) scale(0.89 1)">V</text><text class="cls-17" transform="translate(168.26 288.14) scale(0.89 1)">O</text><text class="cls-17" transform="translate(170.36 288.14) scale(0.89 1)">I</text><text class="cls-17" transform="translate(171.24 288.14) scale(0.89 1)">C</text><text class="cls-17" transform="translate(172.97 288.14) scale(0.89 1)">E</text><text class="cls-17" transform="translate(174.45 288.14) scale(0.89 1)"> </text><text class="cls-17" transform="translate(175.21 288.14) scale(0.89 1)">A</text><text class="cls-17" transform="translate(177.17 288.14) scale(0.89 1)">M</text><text class="cls-17" transform="translate(179.82 288.14) scale(0.89 1)">O</text><text class="cls-17" transform="translate(181.93 288.14) scale(0.89 1)">U</text><text class="cls-17" transform="translate(183.93 288.14) scale(0.89 1)">N</text><text class="cls-17" transform="translate(186.12 288.14) scale(0.89 1)">T</text><text class="cls-17" transform="translate(187.75 288.14) scale(0.89 1)"> </text><text class="cls-17" transform="translate(188.51 288.14) scale(0.89 1)">I</text><text class="cls-17" transform="translate(189.39 288.14) scale(0.89 1)">N</text><text class="cls-17" transform="translate(191.59 288.14) scale(0.89 1)"> </text><text class="cls-17" transform="translate(192.35 288.14) scale(0.89 1)">W</text><text class="cls-17" transform="translate(195.14 288.14) scale(0.89 1)">O</text><text class="cls-17" transform="translate(197.24 288.14) scale(0.89 1)">R</text><text class="cls-17" transform="translate(199.05 288.14) scale(0.89 1)">D</text><text class="cls-17" transform="translate(201.1 288.14) scale(0.89 1)">S</text><text class="cls-17" transform="translate(163.33 294.12) scale(0.89 1)">O</text><text class="cls-17" transform="translate(165.43 294.12) scale(0.89 1)">n</text><text class="cls-17" transform="translate(167 294.12) scale(0.89 1)">e</text><text class="cls-17" transform="translate(168.45 294.12) scale(0.89 1)"> </text><text class="cls-17" transform="translate(169.21 294.12) scale(0.89 1)">T</text><text class="cls-17" transform="translate(170.66 294.12) scale(0.89 1)">h</text><text class="cls-17" transform="translate(172.23 294.12) scale(0.89 1)">o</text><text class="cls-17" transform="translate(173.86 294.12) scale(0.89 1)">u</text><text class="cls-17" transform="translate(175.43 294.12) scale(0.89 1)">s</text><text class="cls-17" transform="translate(176.61 294.12) scale(0.89 1)">a</text><text class="cls-17" transform="translate(178.02 294.12) scale(0.89 1)">n</text><text class="cls-17" transform="translate(179.59 294.12) scale(0.89 1)">d</text><text class="cls-17" transform="translate(181.22 294.12) scale(0.89 1)"> </text><text class="cls-17" transform="translate(181.98 294.12) scale(0.89 1)">R</text><text class="cls-17" transform="translate(183.64 294.12) scale(0.89 1)">u</text><text class="cls-17" transform="translate(185.21 294.12) scale(0.89 1)">p</text><text class="cls-17" transform="translate(186.84 294.12) scale(0.89 1)">e</text><text class="cls-17" transform="translate(188.29 294.12) scale(0.89 1)">e</text><text class="cls-17" transform="translate(189.74 294.12) scale(0.89 1)">s</text><text class="cls-17" transform="translate(190.92 294.12) scale(0.89 1)"> </text><text class="cls-17" transform="translate(191.68 294.12) scale(0.89 1)">o</text><text class="cls-17" transform="translate(193.31 294.12) scale(0.89 1)">n</text><text class="cls-17" transform="translate(194.88 294.12) scale(0.89 1)">l</text><text class="cls-17" transform="translate(195.55 294.12) scale(0.89 1)">y</text><text class="cls-12" transform="translate(235.97 288.14) scale(0.89 1)">S</text><text class="cls-12" transform="translate(237.45 288.14) scale(0.89 1)">u</text><text class="cls-12" transform="translate(239.02 288.14) scale(0.89 1)">b</text><text class="cls-12" transform="translate(240.65 288.14) scale(0.89 1)"> </text><text class="cls-12" transform="translate(241.41 288.14) scale(0.89 1)">T</text><text class="cls-12" transform="translate(242.86 288.14) scale(0.89 1)">o</text><text class="cls-12" transform="translate(244.49 288.14) scale(0.89 1)">t</text><text class="cls-12" transform="translate(245.43 288.14) scale(0.89 1)">a</text><text class="cls-12" transform="translate(246.84 288.14) scale(0.89 1)">l</text><text class="cls-12" transform="translate(287.59 288.14) scale(0.89 1)">₹</text><text class="cls-12" transform="translate(289.08 288.14) scale(0.89 1)"> </text><text class="cls-12" transform="translate(289.84 288.14) scale(0.89 1)">1</text><text class="cls-12" transform="translate(291.34 288.14) scale(0.89 1)">,</text><text class="cls-12" transform="translate(291.94 288.14) scale(0.89 1)">0</text><text class="cls-12" transform="translate(293.44 288.14) scale(0.89 1)">0</text><text class="cls-12" transform="translate(294.93 288.14) scale(0.89 1)">0</text><text class="cls-12" transform="translate(296.43 288.14) scale(0.89 1)">.</text><text class="cls-12" transform="translate(297.03 288.14) scale(0.89 1)">0</text><text class="cls-12" transform="translate(298.53 288.14) scale(0.89 1)">0</text><text class="cls-16" transform="translate(235.97 294.12) scale(0.89 1)">T</text><text class="cls-16" transform="translate(237.6 294.12) scale(0.89 1)">o</text><text class="cls-16" transform="translate(239.29 294.12) scale(0.89 1)">t</text><text class="cls-16" transform="translate(240.37 294.12) scale(0.89 1)">a</text><text class="cls-16" transform="translate(241.87 294.12) scale(0.89 1)">l</text><text class="cls-16" transform="translate(286.58 294.12) scale(0.89 1)">₹</text><text class="cls-16" transform="translate(288.17 294.12) scale(0.89 1)"> </text><text class="cls-16" transform="translate(288.94 294.12) scale(0.89 1)">1</text><text class="cls-16" transform="translate(290.54 294.12) scale(0.89 1)">,</text><text class="cls-16" transform="translate(291.29 294.12) scale(0.89 1)">0</text><text class="cls-16" transform="translate(292.88 294.12) scale(0.89 1)">0</text><text class="cls-16" transform="translate(294.48 294.12) scale(0.89 1)">0</text><text class="cls-16" transform="translate(296.07 294.12) scale(0.89 1)">.</text><text class="cls-16" transform="translate(296.83 294.12) scale(0.89 1)">0</text><text class="cls-16" transform="translate(298.42 294.12) scale(0.89 1)">0</text><text class="cls-12" transform="translate(235.97 300.11) scale(0.89 1)">R</text><text class="cls-12" transform="translate(237.63 300.11) scale(0.89 1)">e</text><text class="cls-12" transform="translate(239.08 300.11) scale(0.89 1)">c</text><text class="cls-12" transform="translate(240.36 300.11) scale(0.89 1)">e</text><text class="cls-12" transform="translate(241.82 300.11) scale(0.89 1)">i</text><text class="cls-12" transform="translate(242.49 300.11) scale(0.89 1)">v</text><text class="cls-12" transform="translate(243.81 300.11) scale(0.89 1)">e</text><text class="cls-12" transform="translate(245.27 300.11) scale(0.89 1)">d</text><text class="cls-12" transform="translate(289.68 300.11) scale(0.89 1)">₹</text><text class="cls-12" transform="translate(291.18 300.11) scale(0.89 1)"> </text><text class="cls-12" transform="translate(291.94 300.11) scale(0.89 1)">5</text><text class="cls-12" transform="translate(293.44 300.11) scale(0.89 1)">0</text><text class="cls-12" transform="translate(294.93 300.11) scale(0.89 1)">0</text><text class="cls-12" transform="translate(296.43 300.11) scale(0.89 1)">.</text><text class="cls-12" transform="translate(297.03 300.11) scale(0.89 1)">0</text><text class="cls-12" transform="translate(298.53 300.11) scale(0.89 1)">0</text><text class="cls-12" transform="translate(235.97 306.09) scale(0.89 1)">B</text><text class="cls-12" transform="translate(237.56 306.09) scale(0.89 1)">a</text><text class="cls-12" transform="translate(238.97 306.09) scale(0.89 1)">l</text><text class="cls-12" transform="translate(239.65 306.09) scale(0.89 1)">a</text><text class="cls-12" transform="translate(241.06 306.09) scale(0.89 1)">n</text><text class="cls-12" transform="translate(242.63 306.09) scale(0.89 1)">c</text><text class="cls-12" transform="translate(243.91 306.09) scale(0.89 1)">e</text><text class="cls-12" transform="translate(289.68 306.09) scale(0.89 1)">₹</text><text class="cls-12" transform="translate(291.18 306.09) scale(0.89 1)"> </text><text class="cls-12" transform="translate(291.94 306.09) scale(0.89 1)">5</text><text class="cls-12" transform="translate(293.44 306.09) scale(0.89 1)">0</text><text class="cls-12" transform="translate(294.93 306.09) scale(0.89 1)">0</text><text class="cls-12" transform="translate(296.43 306.09) scale(0.89 1)">.</text><text class="cls-12" transform="translate(297.03 306.09) scale(0.89 1)">0</text><text class="cls-12" transform="translate(298.53 306.09) scale(0.89 1)">0</text><rect class="cls-8" x="203.18" y="188.32" width="56.33" height="12.33"/><path class="cls-4" d="M208.92,193.05h-1.51l.27-1h4.1l-.26,1H210L209,197h-1.09Z"/><path class="cls-4" d="M214.18,192h1l.79,5h-1.12l-.15-1.12h-2.1l-.75,1.12h-1.17Zm.43,2.91-.23-1.64-1.09,1.64Z"/><path class="cls-4" d="M218.56,194.43,217.5,192h1.23l.62,1.59,1.39-1.59h1.39l-2.33,2.51,1.1,2.45h-1.23l-.66-1.67L217.57,197h-1.4Z"/><path class="cls-4" d="M225.07,192h1.09l-1.33,5h-1.09Z"/><path class="cls-4" d="M227.4,192h1l1.44,3.15.85-3.15h1.08l-1.34,5h-.92l-1.5-3.25-.87,3.25h-1.08Z"/><path class="cls-4" d="M232.43,192h1.17l.34,3.46,2.19-3.46h1.23L234,197h-1Z"/><path class="cls-4" d="M238.48,196.91a2.12,2.12,0,0,1-.71-.46,2.08,2.08,0,0,1-.46-.7,2.2,2.2,0,0,1-.16-.86,2.88,2.88,0,0,1,.21-1.08,3.11,3.11,0,0,1,.61-.94,3.18,3.18,0,0,1,.94-.66,2.86,2.86,0,0,1,1.22-.25,2.51,2.51,0,0,1,.92.16,2.09,2.09,0,0,1,.72.47,2.14,2.14,0,0,1,.46.69,2.28,2.28,0,0,1,.16.87,2.71,2.71,0,0,1-.22,1.08,3,3,0,0,1-.6.94,3.23,3.23,0,0,1-.95.66,2.82,2.82,0,0,1-1.21.25A2.33,2.33,0,0,1,238.48,196.91Zm1.77-1a1.93,1.93,0,0,0,.54-.44,2,2,0,0,0,.35-.6,1.91,1.91,0,0,0,.12-.65,1.35,1.35,0,0,0-.08-.5,1,1,0,0,0-.24-.4,1.13,1.13,0,0,0-.4-.27,1.61,1.61,0,0,0-1.25.08,1.84,1.84,0,0,0-.55.44,1.77,1.77,0,0,0-.34.6,1.68,1.68,0,0,0-.13.65,1.59,1.59,0,0,0,.08.5,1.22,1.22,0,0,0,.24.4,1.11,1.11,0,0,0,.4.26,1.57,1.57,0,0,0,1.26-.07Z"/><path class="cls-4" d="M244,192h1.09l-1.33,5h-1.09Z"/><path class="cls-4" d="M246.8,196.93a2.2,2.2,0,0,1-.73-.43,2.08,2.08,0,0,1-.49-.68,2.37,2.37,0,0,1-.17-.9,2.76,2.76,0,0,1,.24-1.13,3.09,3.09,0,0,1,1.59-1.59,2.93,2.93,0,0,1,1.18-.24,2.34,2.34,0,0,1,1.2.28,2.3,2.3,0,0,1,.78.77l-.9.63a1.9,1.9,0,0,0-.49-.49,1.26,1.26,0,0,0-.73-.19,1.51,1.51,0,0,0-.65.15,2.07,2.07,0,0,0-.56.41,2.27,2.27,0,0,0-.39.61,1.92,1.92,0,0,0-.14.75,1.53,1.53,0,0,0,.08.49,1.22,1.22,0,0,0,.26.38,1.12,1.12,0,0,0,.38.24,1.26,1.26,0,0,0,.49.09,1.35,1.35,0,0,0,.62-.14,2.88,2.88,0,0,0,.54-.35l.7.73a2.93,2.93,0,0,1-.8.55,2.52,2.52,0,0,1-1.07.21A2.85,2.85,0,0,1,246.8,196.93Z"/><path class="cls-4" d="M251.49,192h3.7l-.26,1h-2.62l-.27,1h2.3l-.26,1h-2.3L251.5,196h2.66l-.26,1h-3.74Z"/><path d="M213,139.94v4.22h-.54v-4.22Z"/><path d="M214,142c0-.31,0-.57,0-.82h.49l0,.5h0a1.11,1.11,0,0,1,1-.57c.42,0,1.07.25,1.07,1.29v1.81h-.55v-1.75c0-.49-.18-.89-.7-.89a.79.79,0,0,0-.74.56,1,1,0,0,0,0,.26v1.82H214Z"/><path d="M217.63,141.13l.6,1.7a7.54,7.54,0,0,1,.24.78h0c.07-.25.16-.5.26-.78l.59-1.7h.57l-1.19,3h-.52l-1.15-3Z"/><path d="M223.11,142.62a1.48,1.48,0,0,1-1.51,1.61,1.44,1.44,0,0,1-1.45-1.56,1.48,1.48,0,0,1,1.5-1.61A1.44,1.44,0,0,1,223.11,142.62Zm-2.41,0c0,.66.38,1.16.92,1.16s.92-.49.92-1.17c0-.52-.25-1.17-.9-1.17S220.7,142.07,220.7,142.65Z"/><path d="M224.41,140.28a.32.32,0,0,1-.35.34.33.33,0,0,1-.33-.34.34.34,0,0,1,.34-.35A.33.33,0,0,1,224.41,140.28Zm-.61,3.88v-3h.55v3Z"/><path d="M227.42,144.05a2.14,2.14,0,0,1-.87.17,1.44,1.44,0,0,1-1.51-1.54,1.54,1.54,0,0,1,1.63-1.61,2,2,0,0,1,.76.15l-.12.43a1.26,1.26,0,0,0-.64-.14,1.14,1.14,0,0,0,0,2.27,1.51,1.51,0,0,0,.67-.15Z"/><path d="M228.33,142.74a1,1,0,0,0,1,1.06,2,2,0,0,0,.84-.16l.09.39a2.37,2.37,0,0,1-1,.19,1.41,1.41,0,0,1-1.49-1.53,1.47,1.47,0,0,1,1.42-1.63,1.29,1.29,0,0,1,1.26,1.43c0,.11,0,.2,0,.25Zm1.61-.39a.78.78,0,0,0-.76-.89.9.9,0,0,0-.84.89Z"/><path d="M235.71,144a3.94,3.94,0,0,1-1.3.23,2,2,0,0,1-2.16-2.13,2.11,2.11,0,0,1,2.28-2.17,2.56,2.56,0,0,1,1.05.19l-.13.45a2,2,0,0,0-.93-.19,1.58,1.58,0,0,0-1.7,1.7,1.55,1.55,0,0,0,1.63,1.7,1.86,1.86,0,0,0,.73-.11v-1.26h-.86v-.44h1.39Z"/><path d="M236.86,142.74a1,1,0,0,0,1,1.06,1.91,1.91,0,0,0,.84-.16l.1.39a2.45,2.45,0,0,1-1,.19,1.41,1.41,0,0,1-1.49-1.53,1.47,1.47,0,0,1,1.42-1.63,1.28,1.28,0,0,1,1.25,1.43,1.38,1.38,0,0,1,0,.25Zm1.61-.39a.78.78,0,0,0-.76-.89.92.92,0,0,0-.85.89Z"/><path d="M239.68,142c0-.31,0-.57,0-.82h.48l0,.5h0a1.11,1.11,0,0,1,1-.57c.42,0,1.07.25,1.07,1.29v1.81h-.55v-1.75c0-.49-.18-.89-.7-.89a.77.77,0,0,0-.74.56.68.68,0,0,0,0,.26v1.82h-.55Z"/><path d="M243.46,142.74a1,1,0,0,0,1,1.06,1.9,1.9,0,0,0,.83-.16l.1.39a2.45,2.45,0,0,1-1,.19,1.41,1.41,0,0,1-1.49-1.53,1.47,1.47,0,0,1,1.42-1.63,1.28,1.28,0,0,1,1.25,1.43,1.38,1.38,0,0,1,0,.25Zm1.61-.39a.78.78,0,0,0-.76-.89.92.92,0,0,0-.85.89Z"/><path d="M246.28,142.07c0-.35,0-.66,0-.94h.48l0,.59h0a.92.92,0,0,1,.84-.66l.16,0v.52l-.19,0a.77.77,0,0,0-.74.71,1.81,1.81,0,0,0,0,.25v1.62h-.55Z"/><path d="M250,144.16l0-.38h0a1.16,1.16,0,0,1-.93.45.86.86,0,0,1-.92-.87c0-.73.65-1.14,1.82-1.13v-.06a.62.62,0,0,0-.69-.7,1.58,1.58,0,0,0-.79.22l-.12-.36a1.89,1.89,0,0,1,1-.27c.93,0,1.15.63,1.15,1.24v1.13a4,4,0,0,0,.05.73Zm-.08-1.55c-.6,0-1.28.1-1.28.69a.48.48,0,0,0,.52.52.76.76,0,0,0,.73-.51.51.51,0,0,0,0-.17Z"/><path d="M252,140.26v.87h.78v.42H252v1.63c0,.38.1.59.41.59a1.19,1.19,0,0,0,.32,0l0,.42a1.41,1.41,0,0,1-.49.07.76.76,0,0,1-.59-.23,1.1,1.1,0,0,1-.21-.79v-1.65h-.47v-.42h.47v-.73Z"/><path d="M253.62,142.74a1,1,0,0,0,1,1.06,2,2,0,0,0,.84-.16l.09.39a2.37,2.37,0,0,1-1,.19,1.41,1.41,0,0,1-1.49-1.53,1.47,1.47,0,0,1,1.43-1.63,1.29,1.29,0,0,1,1.25,1.43c0,.11,0,.2,0,.25Zm1.61-.39a.78.78,0,0,0-.76-.89.9.9,0,0,0-.84.89Z"/><path d="M259.06,139.72v3.66c0,.27,0,.57,0,.78h-.5l0-.53h0a1.13,1.13,0,0,1-1,.6,1.38,1.38,0,0,1-1.29-1.54,1.45,1.45,0,0,1,1.35-1.63,1,1,0,0,1,.92.46h0v-1.8Zm-.55,2.64a1.79,1.79,0,0,0,0-.23.83.83,0,0,0-.8-.64c-.57,0-.91.5-.91,1.17s.3,1.12.9,1.12a.83.83,0,0,0,.81-.65,1.79,1.79,0,0,0,0-.24Z"/><path d="M259.78,143.83a.37.37,0,1,1,.37.4A.37.37,0,0,1,259.78,143.83Z"/><circle class="cls-8" cx="206.96" cy="141.97" r="4.04"/><path class="cls-4" d="M207.12,143.28a.89.89,0,0,0,0,.22c0,.14,0,.25.24.25a.52.52,0,0,0,.17,0c-.19.57-.46.61-.69.61a.64.64,0,0,1-.68-.73,1.24,1.24,0,0,1,0-.33l.48-2.27h.95Zm.14-3.68a.53.53,0,0,1,.53.53.53.53,0,0,1-.53.53.52.52,0,0,1-.52-.53A.52.52,0,0,1,207.26,139.6Z"/><path class="cls-18" d="M364.08,200.82c.94,13.29,3.55,26.91,11,38,1.61,2.37,3.95,4.84,6.81,4.54a5.65,5.65,0,0,0,4-2.74,13.11,13.11,0,0,0,1.63-4.73c2.43-13-1.54-26.23-5.49-38.84-1.62-5.2-3.79-14.39-9.07-17.19-5.51-2.92-8.28,6.09-8.79,9.77A54.83,54.83,0,0,0,364.08,200.82Z"/><path class="cls-19" d="M363.45,181.93c.25-2.2.84-4.79,2.88-5.75s4.46.46,6.14,2c10.16,9.11,14,22,15.84,35.77L364,215.42A128.92,128.92,0,0,1,363.45,181.93Z"/><path class="cls-20" d="M361.33,362.77c1.7,3.59,4,7.63,7.38,8.63,2.33.7,8.88-3.71,10.19-5.48s-2.75-87.12-5.68-92.32c-3.94-7-35,2.66-33.94,14.75,1.37,15.46,5.77,31.91,11,47.24A257,257,0,0,0,361.33,362.77Z"/><path class="cls-18" d="M322.79,442a22.7,22.7,0,0,0,10.19-.82l-.69-12a3.06,3.06,0,0,0-.34-1.47,2.73,2.73,0,0,0-1.92-1c-2.78-.49-7-.64-7.09,2.83C322.83,433.69,322.84,437.85,322.79,442Z"/><path class="cls-18" d="M379.13,442a22,22,0,0,0,10.08-.82l-2.22-12a3.39,3.39,0,0,0-.53-1.47,3.16,3.16,0,0,0-2-1c-2.84-.49-7.08-.64-6.73,2.83C378.1,433.69,378.65,437.85,379.13,442Z"/><path class="cls-20" d="M378,353c-4.43-7.1-15.12-12-19.62.35-6.85,18.76,6,53.86,9.26,76.51h20.49C388.45,427.62,380.45,356.88,378,353Z"/><path class="cls-21" d="M321.69,294.38c2.83,2.24,6.57,2.58,10.09,2.58,28.92,0,45.66-9.41,41.66-22.69-4.11-13.65-30-11.45-43.52-7-2.91.95-7.16,1.86-9.15,4.59C317.89,275.75,314.8,289,321.69,294.38Z"/><path class="cls-21" d="M324.14,362.77c1,3.59,2.48,7.63,5.64,8.63,2.19.7,9.63-3.71,11.3-5.48s15.08-73.38,13.2-78.57a19.78,19.78,0,0,0-15.41-12.53c-9.48-1.51-20.4,1.44-21.77,13.53-1.75,15.46-.66,31.91,1.48,47.24A217.82,217.82,0,0,0,324.14,362.77Z"/><path class="cls-21" d="M343.44,353c-2.75-7.08-13.62-12.68-19.71.35-9.8,21-3.82,52.3-2,76.51h17.54C340.7,399.58,345,356.88,343.44,353Z"/><path class="cls-21" d="M411.41,447.89c.15-1.67-1.43-3-3.06-3.43a22.45,22.45,0,0,0-5-.11,13.53,13.53,0,0,1-11.59-7.15,3.38,3.38,0,0,0-1.16-1.55,2.24,2.24,0,0,0-2.42.44c-.68.56-1.15,1.31-1.77,1.93a6,6,0,0,1-4.24,1.7c-1.31,0-2.77-1-4-.36-1.11.58-1.41,2.12-1.69,3.21-.48,1.89-.92,3.79-1.38,5.68a7.15,7.15,0,0,0-.24,1.29h9.09a12.94,12.94,0,0,0,.94-3,7.14,7.14,0,0,0,.79,3h25A2.8,2.8,0,0,0,411.41,447.89Z"/><path class="cls-21" d="M337.51,447.89a3.9,3.9,0,0,0-1.34-3.43c-.72-.39-1.83-3.18-3.31-7.26-.68-1.87-4.45-2.4-6.34.82-.61,1-1.17,1.72-1.86,1.7s-1.22-1-1.77-.36-.62,2.12-.74,3.21c-.22,1.89-.41,3.79-.61,5.68-.05.42-.09.86-.1,1.29h15.73A5,5,0,0,0,337.51,447.89Z"/><path class="cls-19" d="M373.1,233.84c2.17-10.7,5.88-21.15,7.45-31.93.73-5,1.8-11.25-1.15-15.61-2.64-3.91-14-19.31-29.3-19.31-21.73,0-30.9,8.86-34,19.34-2.18,13.24-1.43,31.28,2.51,43.94,3.8,12.17-.24,25.12-3.72,52h62.78C377.48,267,370.93,244.54,373.1,233.84Z"/><path class="cls-22" d="M293.74,210.07a62.6,62.6,0,0,1,23.95-26.28c1.86-1.12,4.27-2.13,6.07-.91a4.05,4.05,0,0,1,1.58,3,11.52,11.52,0,0,1-.44,3.5c-3.17,13.4-8.23,26.27-13.27,39.08-1.54,3.94-3.12,7.93-5.62,11.34-5.64,7.72-17.49,8.49-18.42-2.72-.52-6.29.64-10.91,2.35-17A61.23,61.23,0,0,1,293.74,210.07Z"/><path class="cls-19" d="M326.56,182.91c.31-2.18,2-9.27.21-10.59-16.93,6.78-28.75,19.84-35.45,36.3l26.26,6.66A130.08,130.08,0,0,0,326.56,182.91Z"/><path class="cls-22" d="M345.37,241.47c1.41,1.63.93,4.29-.51,5.89s-43,.42-50.2-1.85c-2.2-.69-4.68-1.65-5.45-3.82-.69-1.93.3-4.06,1.48-5.74,2-2.84,4.85-5.84,8.06-7.26,2.22-1,4.06.37,6.17,1C312.69,232.06,344.48,240.42,345.37,241.47Z"/><path class="cls-23" d="M369.42,147.13c-.68,1.24-1.61.94-1.62-.46,0-4.48.13-5.18-2-9.13-1.19-2.17-1.55-2.34-.56-3.12C368.5,131.82,375.07,136.9,369.42,147.13Z"/><path class="cls-18" d="M356.21,151.76c-1.49-6.57-6.46-8.11-9.35-6.54-1.85,12.3-3.74,17.77-8.56,24.48,6,3.84,16.22,3.12,18.43,0C356.82,168.71,357,155.15,356.21,151.76Z"/><path class="cls-22" d="M350.1,136.52c4.36-5.77,13.61-5.08,17.18,1.76,3.26,6.25.37,19.8-2.17,22.69-4.45,5.05-14.43-.22-15.92-3.84C347,151.82,346.44,141.38,350.1,136.52Z"/><path class="cls-23" d="M351.87,154.26a2.7,2.7,0,0,0,.71,2,1.86,1.86,0,0,0,1.73.21,7.14,7.14,0,0,0,1.58-.86,14.08,14.08,0,0,1,7.31-2.1,4.7,4.7,0,0,1,3.27,1,4.51,4.51,0,0,1,1.16,2.56,8.21,8.21,0,0,1-.09,3.59,5.21,5.21,0,0,1-2,2.94,7.52,7.52,0,0,1-4.86,1,17.43,17.43,0,0,1-8.5-2.66,11.16,11.16,0,0,1-4.95-7.22,9.33,9.33,0,0,1,.32-4.42,5.73,5.73,0,0,1,2.17-3.11c1.68-1.1,1.65.54,1.72,1.67C351.6,150.61,351.74,152.43,351.87,154.26Z"/><path class="cls-23" d="M352.56,138.28c.31,1-1.65,14.7-2,14.56-1.35-.51-3.18-4.27-5.69-4-.81.07-1.9.63-2-1-.54-10.22-.92-9.68.87-10.68C347.66,134.94,352,136.47,352.56,138.28Z"/><path class="cls-23" d="M341.16,132.28c8.14-6.14,21.74-8.82,25.78-6.62,6,3.26,2,13.3-.18,13.92-1,.28-2-.48-2.84-1-4.17-2.64-7.75-.39-10.8.28C347.72,140,334.23,137.51,341.16,132.28Z"/><path class="cls-22" d="M342.56,147.31a6.48,6.48,0,0,0,1.57,4.59c3.12,3.58,5.95-1.5,5.15-4.57C348.33,143.67,342.84,142.81,342.56,147.31Z"/><path class="cls-22" d="M349.34,239.26c1-.25,2.5-.2,2.6.84.06.61-.5,1.11-1.06,1.38a4.32,4.32,0,0,0-1.59.91,2.07,2.07,0,0,0,.56,2.81,6.06,6.06,0,0,0,3,.93l8.6,1.07c1.19.15,2.64.52,2.91,1.69a2.72,2.72,0,0,1-1,2.31,13.57,13.57,0,0,1-19,.46,9.92,9.92,0,0,1-3.13-5.42C340.24,240.41,345.08,240.31,349.34,239.26Z"/><path class="cls-22" d="M406.56,204.59c1.62-1.16,3.6-2.38,5.46-1.69A4.16,4.16,0,0,1,414.4,207c0,1.68-20.24,34.62-28.77,38.05-4.29,1.72-7.65-.66-9.39-4.42C373.83,235.36,400.68,208.81,406.56,204.59Z"/><path class="cls-18" d="M410.82,192.56c2-1.73,4.71-2.84,7.23-2.14a6.84,6.84,0,0,1,4.61,5.22,9.82,9.82,0,0,1-1.42,7c-1.28,2.09-6.14,6.22-11.38,4.78-3.21-.88-3.71-3.07-3.46-6A14,14,0,0,1,410.82,192.56Z"/><path class="cls-22" d="M412.71,198.69l-8.34.75a37.18,37.18,0,0,0,.94,6.42c.46,2.26,8.8,2.91,9.09,1.11C414.66,205.39,413.48,201.2,412.71,198.69Z"/><path class="cls-24" d="M408.29,203.09h10.1a1.54,1.54,0,0,0,1.38-1.08l6.17-21.43a.8.8,0,0,0-.78-1.08h-10.1a1.53,1.53,0,0,0-1.38,1.08L407.51,202A.79.79,0,0,0,408.29,203.09Z"/><path class="cls-25" d="M407.31,203.09H417.4a1.54,1.54,0,0,0,1.39-1.08L425,180.58a.79.79,0,0,0-.78-1.08H414.08a1.55,1.55,0,0,0-1.39,1.08L406.53,202A.79.79,0,0,0,407.31,203.09Z"/><path class="cls-23" d="M408.14,201.93h9.1a1.4,1.4,0,0,0,1.25-1L424,181.64a.71.71,0,0,0-.7-1h-9.1a1.38,1.38,0,0,0-1.25,1L407.44,201A.71.71,0,0,0,408.14,201.93Z"/><path class="cls-22" d="M406.61,199.67c2-2.46,4.8-6.49,6.06-8a10.3,10.3,0,0,0,1-1.17,1.17,1.17,0,0,0-.06-1.43c-.49-.44-1.27-.11-1.84.23-2.76,1.68-5.7,3.55-6.9,6.55a9.17,9.17,0,0,0-.52,3.58S406.72,200,406.61,199.67Z"/><path class="cls-22" d="M416.17,201.78a6.76,6.76,0,0,0-.56,1.62,1.63,1.63,0,0,0,.56,1.54,2.18,2.18,0,0,0,2.14-.19,14.35,14.35,0,0,0,7-8c.56-1.62.71-3.68-.58-4.81a3.54,3.54,0,0,0-4.33.2C417,194.75,417.66,198.29,416.17,201.78Z"/><path class="cls-20" d="M98.87,362.77c-1.71,3.59-4,7.63-7.39,8.63-2.33.7-8.88-3.71-10.19-5.48S84.05,278.8,87,273.6c3.94-7,35,2.66,33.93,14.75-1.36,15.46-5.77,31.91-11,47.24A257,257,0,0,1,98.87,362.77Z"/><path class="cls-18" d="M137.41,442a22.7,22.7,0,0,1-10.19-.82l.69-12a3.05,3.05,0,0,1,.33-1.47,2.73,2.73,0,0,1,1.93-1c2.77-.49,7-.64,7.09,2.83C137.37,433.69,137.36,437.85,137.41,442Z"/><path class="cls-18" d="M81.07,442A22,22,0,0,1,71,441.18l2.22-12a3.37,3.37,0,0,1,.52-1.47,3.16,3.16,0,0,1,2-1c2.84-.49,7.09-.64,6.74,2.83C82.09,433.69,81.55,437.85,81.07,442Z"/><path class="cls-20" d="M82.2,353c4.44-7.1,15.13-12,19.62.35,6.85,18.76-14.88,53.86-18.11,76.51H72.07C71.75,427.62,79.74,356.88,82.2,353Z"/><path class="cls-21" d="M138.51,294.38c-2.83,2.24-6.58,2.58-10.09,2.58-28.92,0-45.66-9.41-41.66-22.69,4.11-13.65,30-11.45,43.51-7,2.92.95,7.16,1.86,9.15,4.59C142.31,275.75,145.39,289,138.51,294.38Z"/><path class="cls-18" d="M99,200.82c-.94,13.29-3.55,26.91-11,38-1.61,2.37-4,4.84-6.81,4.54a5.65,5.65,0,0,1-4-2.74,13.11,13.11,0,0,1-1.63-4.73C73,222.85,77,209.61,81,197c1.62-5.2,3.79-14.39,9.07-17.19,5.51-2.92,8.28,6.09,8.79,9.77A54.83,54.83,0,0,1,99,200.82Z"/><path class="cls-26" d="M99.58,181.93c-.25-2.2-.84-4.79-2.88-5.75s-4.47.46-6.14,2c-10.16,9.11-14,22-15.84,35.77l24.35,1.5A128.92,128.92,0,0,0,99.58,181.93Z"/><path class="cls-21" d="M136.05,362.77c-1,3.59-2.48,7.63-5.64,8.63-2.19.7-9.63-3.71-11.29-5.48s-15.09-73.38-13.2-78.57a19.78,19.78,0,0,1,15.4-12.53c9.49-1.51,20.4,1.44,21.77,13.53,1.75,15.46.67,31.91-1.47,47.24A216.06,216.06,0,0,1,136.05,362.77Z"/><path class="cls-22" d="M57.23,202c-1.61-1.16-3.59-2.38-5.46-1.69a4.15,4.15,0,0,0-2.37,4.07c0,1.68,20.24,34.62,28.76,38,4.3,1.72,7.66-.66,9.4-4.42C90,232.79,63.11,206.24,57.23,202Z"/><path class="cls-21" d="M116.76,353c2.75-7.08,13.62-12.68,19.7.35,9.81,21,3.82,52.3,2,76.51H126.84C126,427.62,115.23,356.88,116.76,353Z"/><path class="cls-27" d="M83.63,186.3c-2.95,4.36-1.88,10.57-1.15,15.61,1.57,10.78,5.28,21.23,7.45,31.93s2.72,22-1.82,32.15a15.43,15.43,0,0,0-1.71,4.86,4.28,4.28,0,0,0,2.31,4.36,7.92,7.92,0,0,0,3.3.44l45.58-.29a5.67,5.67,0,0,0,2.91-.55c1.82-1.14,1.19-3.61.54-5.5-4.38-12.66-.64-26.28,3.34-39s8.79-28.3,6.6-41.54c-5.36-6.55-16.32-21.74-38-21.74C97.68,167,86.27,182.39,83.63,186.3Z"/><path class="cls-18" d="M158.54,214.87a62.58,62.58,0,0,0-18.49-30.38c-1.6-1.45-3.78-2.9-5.77-2.05a4,4,0,0,0-2.13,2.67,11.54,11.54,0,0,0-.25,3.52c.55,13.76,3,27.36,5.54,40.9.77,4.16,1.55,8.37,3.35,12.2s4.75,7.3,8.71,8.8c2.07.78,4.13-1.39,6-2.88,1.53-1.2,4.53-5.65,4.92-7.38,1.38-6.17.4-8.51-.12-14.8A61.31,61.31,0,0,0,158.54,214.87Z"/><path class="cls-28" d="M162,219.24a1.17,1.17,0,0,1,0,.26C162,219.42,162,219.33,162,219.24Z"/><path class="cls-27" d="M131.52,181.93c.11-2.2.53-4.79,2.52-5.75s6,.89,7.74,2.4c10.73,9.11,16.7,21.53,19.41,35.34l-27.05,1.5A129.88,129.88,0,0,1,131.52,181.93Z"/><path class="cls-22" d="M104.84,236.4c-1.35-1.69-.78-4.33.71-5.88s43,1,50.11,3.53c2.17.77,4.62,1.81,5.31,4,.63,2-.43,4-1.66,5.7-2.07,2.77-5,5.67-8.3,7-2.25.9-4-.5-6.14-1.22C137.19,246.9,105.7,237.47,104.84,236.4Z"/><path class="cls-22" d="M84,225.93c-.49-.71-.94-1.7-.41-2.38a1.51,1.51,0,0,1,1.51-.41,6.5,6.5,0,0,1,1.51.65c2.55,1.25,5.52,1.12,8.35,1.35a31.7,31.7,0,0,1,17.4,7c4.19,3.44-3.86,7.2-7,6.54-5.21-1.09-10.73-3-15-6.24A27.28,27.28,0,0,1,84,225.93Z"/><path class="cls-23" d="M93.81,145.47c.72,1.21,1.64.88,1.59-.52-.14-4.47-.3-5.17,1.72-9.19,1.12-2.2,1.47-2.39.46-3.14C94.2,130.14,87.81,135.44,93.81,145.47Z"/><path class="cls-18" d="M106.82,151.76c1.49-6.57,6.46-8.11,9.35-6.54,1.85,12.3,3.74,17.77,8.56,24.48-6,3.84-16.22,3.12-18.43,0C106.21,168.71,106.05,155.15,106.82,151.76Z"/><path class="cls-22" d="M112.75,134.21c-4.54-5.62-13.77-4.61-17.1,2.34-3.05,6.36.29,19.81,2.93,22.6,4.62,4.9,14.41-.71,15.78-4.38C116.36,149.4,116.58,138.94,112.75,134.21Z"/><path class="cls-23" d="M110.36,136.05c-.28,1,2.14,14.64,2.51,14.48,1.34-.55,3-4.37,5.56-4.23.81,0,1.92.57,1.95-1,.2-10.23.6-9.71-1.22-10.65C115.14,132.55,110.86,134.22,110.36,136.05Z"/><path class="cls-23" d="M121.55,129.67c-8.35-5.86-22-8.08-26-5.75-5.9,3.47-1.56,13.37.65,13.91,1,.25,1.94-.55,2.8-1.13,4.08-2.78,7.73-.66,10.8-.09C115.25,137.61,128.65,134.66,121.55,129.67Z"/><path class="cls-22" d="M120.65,144.74a6.45,6.45,0,0,1-1.41,4.64c-3,3.68-6-1.29-5.3-4.39C114.77,141.3,120.23,140.25,120.65,144.74Z"/><path class="cls-21" d="M48.79,447.89c-.15-1.67,1.43-3,3.05-3.43a22.55,22.55,0,0,1,5-.11,13.53,13.53,0,0,0,11.59-7.15,3.38,3.38,0,0,1,1.16-1.55,2.24,2.24,0,0,1,2.42.44c.68.56,1.15,1.31,1.77,1.93a5.93,5.93,0,0,0,4.24,1.7c1.31,0,2.77-1,4-.36s1.41,2.12,1.69,3.21c.48,1.89.92,3.79,1.38,5.68a8.11,8.11,0,0,1,.23,1.29H76.27a13,13,0,0,1-1-3,7.28,7.28,0,0,1-.78,3h-25A2.75,2.75,0,0,1,48.79,447.89Z"/><path class="cls-21" d="M122.69,447.89a3.9,3.9,0,0,1,1.34-3.43c.72-.39,1.83-3.18,3.31-7.26.68-1.87,4.45-2.4,6.33.82.61,1,1.18,1.72,1.87,1.7s1.22-1,1.77-.36.62,2.12.74,3.21c.21,1.89.41,3.79.61,5.68,0,.42.09.86.1,1.29H123A4.73,4.73,0,0,1,122.69,447.89Z"/><path class="cls-18" d="M53,190c-2-1.73-4.7-2.84-7.22-2.14a6.85,6.85,0,0,0-4.62,5.22,9.82,9.82,0,0,0,1.43,7c1.27,2.09,6.14,6.22,11.37,4.78,3.21-.88,3.72-3.07,3.46-6A13.89,13.89,0,0,0,53,190Z"/><path class="cls-22" d="M51.09,196.12l8.34.75a37.18,37.18,0,0,1-.94,6.42c-.46,2.26-8.8,2.91-9.09,1.11C49.14,202.82,50.32,198.63,51.09,196.12Z"/><path class="cls-24" d="M55.51,200.52H45.41A1.52,1.52,0,0,1,44,199.44L37.86,178a.79.79,0,0,1,.78-1.08H48.73A1.55,1.55,0,0,1,50.12,178l6.16,21.43A.79.79,0,0,1,55.51,200.52Z"/><path class="cls-25" d="M56.49,200.52H46.4A1.54,1.54,0,0,1,45,199.44L38.85,178a.79.79,0,0,1,.77-1.08h10.1A1.53,1.53,0,0,1,51.1,178l6.17,21.43A.79.79,0,0,1,56.49,200.52Z"/><path class="cls-23" d="M55.66,199.36h-9.1a1.39,1.39,0,0,1-1.25-1l-5.56-19.32a.71.71,0,0,1,.71-1h9.1a1.38,1.38,0,0,1,1.24,1l5.56,19.32A.71.71,0,0,1,55.66,199.36Z"/><path class="cls-22" d="M57.19,197.1c-2-2.45-4.8-6.49-6.06-8a9.4,9.4,0,0,1-1-1.17,1.15,1.15,0,0,1,.06-1.43c.49-.44,1.27-.11,1.83.23,2.77,1.68,5.71,3.55,6.91,6.55a9.17,9.17,0,0,1,.52,3.58S57.08,197.45,57.19,197.1Z"/><path class="cls-22" d="M47.62,199.21a6,6,0,0,1,.56,1.62,1.61,1.61,0,0,1-.56,1.54,2.16,2.16,0,0,1-2.13-.19,14.31,14.31,0,0,1-7-8c-.56-1.62-.71-3.68.58-4.81a3.54,3.54,0,0,1,4.33.2C46.82,192.18,46.14,195.72,47.62,199.21Z"/><path class="cls-29" d="M348.13,41.43q-1.92-1.56-3.88-3.08l-.75,1q2,1.51,3.85,3.06Z"/><path class="cls-29" d="M369.52,62q-1.65-1.85-3.33-3.65l-.9.84c1.12,1.19,2.22,2.41,3.31,3.63Z"/><path class="cls-29" d="M355.62,47.89q-1.83-1.66-3.7-3.28l-.81.93q1.86,1.6,3.69,3.26Z"/><path class="cls-29" d="M362.76,54.74c-1.16-1.18-2.34-2.33-3.53-3.47l-.85.88q1.77,1.71,3.5,3.45Z"/><path class="cls-29" d="M392.41,94.07c-.81-1.43-1.63-2.86-2.48-4.27l-1.05.63c.83,1.4,1.65,2.82,2.45,4.24Z"/><path class="cls-29" d="M381.83,77.41c-1-1.35-1.93-2.67-2.92-4l-1,.74q1.49,2,2.9,4Z"/><path class="cls-29" d="M375.88,69.52q-1.54-1.93-3.13-3.83l-.94.79c1.05,1.26,2.09,2.52,3.11,3.8Z"/><path class="cls-29" d="M387.34,85.6q-1.32-2.09-2.7-4.13l-1,.68q1.36,2,2.68,4.11Z"/><path class="cls-29" d="M340.29,35.38c-1.33-1-2.67-1.93-4-2.87l-.7,1q2,1.4,4,2.85Z"/><path class="cls-29" d="M287.48,8.58c-1.57-.49-3.14-1-4.73-1.43l-.34,1.18c1.58.46,3.14.93,4.7,1.43Z"/><path class="cls-29" d="M306,15.6c-1.51-.67-3-1.32-4.57-1.94L301,14.8q2.28.93,4.53,1.92Z"/><path class="cls-29" d="M296.86,11.84c-1.55-.58-3.1-1.15-4.67-1.69l-.4,1.16c1.55.54,3.1,1.1,4.63,1.68Z"/><path class="cls-29" d="M332.15,29.75c-1.39-.9-2.78-1.78-4.19-2.65l-.64,1c1.4.86,2.78,1.74,4.16,2.63Z"/><path class="cls-29" d="M323.71,24.57c-1.43-.83-2.88-1.63-4.33-2.42l-.58,1.08c1.44.78,2.87,1.59,4.29,2.4Z"/><path class="cls-29" d="M315,19.85q-2.21-1.12-4.45-2.19L310,18.77q2.22,1.07,4.42,2.17Z"/><path class="cls-29" d="M397,102.8c-.73-1.48-1.48-2.94-2.24-4.4l-1.09.58c.76,1.44,1.5,2.9,2.23,4.36Z"/><path class="cls-29" d="M278,5.85q-2.4-.63-4.81-1.18l-.27,1.2q2.4.56,4.77,1.17Z"/><path class="cls-29" d="M404.77,120.93q-.84-2.33-1.76-4.62l-1.14.46c.6,1.52,1.19,3,1.75,4.59Z"/><path class="cls-29" d="M407.92,130.31q-.74-2.37-1.51-4.71l-1.17.39q.78,2.33,1.5,4.68Z"/><path class="cls-29" d="M401.13,111.75c-.65-1.51-1.31-3-2-4.5l-1.12.51c.68,1.49,1.35,3,2,4.48Z"/><path class="cls-29" d="M413,159.43l1.22-.16c-.23-1.64-.47-3.27-.73-4.89l-1.22.19C412.57,156.19,412.82,157.81,413,159.43Z"/><path class="cls-29" d="M410.55,139.84c-.4-1.6-.81-3.19-1.25-4.78l-1.19.33c.44,1.57.85,3.16,1.25,4.75Z"/><path class="cls-29" d="M414.09,169.2l1.23-.1c-.13-1.65-.29-3.29-.47-4.92l-1.22.13C413.81,165.93,414,167.56,414.09,169.2Z"/><path class="cls-29" d="M411.46,149.74l1.21-.23c-.31-1.63-.64-3.24-1-4.85l-1.2.27C410.82,146.52,411.15,148.13,411.46,149.74Z"/><path class="cls-29" d="M91.49,66.62l-.95-.79Q89,67.72,87.41,69.66l1,.76C89.4,69.14,90.43,67.87,91.49,66.62Z"/><path class="cls-29" d="M69.6,99.22l-1.09-.57c-.77,1.46-1.52,2.94-2.25,4.42l1.11.54Q68.45,101.41,69.6,99.22Z"/><path class="cls-29" d="M79.67,82.33l-1-.69q-1.38,2.06-2.71,4.15l1,.66Q78.3,84.37,79.67,82.33Z"/><path class="cls-29" d="M74.41,90.64,73.35,90q-1.26,2.13-2.48,4.29l1.07.6Q73.16,92.76,74.41,90.64Z"/><path class="cls-29" d="M119.76,39.44l-.75-1q-2,1.51-3.87,3.08l.78,1Q117.82,40.95,119.76,39.44Z"/><path class="cls-29" d="M112.16,45.65l-.8-.93q-1.87,1.62-3.7,3.28l.83.91Q110.31,47.26,112.16,45.65Z"/><path class="cls-29" d="M104.9,52.27l-.85-.89q-1.78,1.71-3.52,3.47l.88.87Q103.14,54,104.9,52.27Z"/><path class="cls-29" d="M98,59.26l-.89-.84q-1.69,1.81-3.33,3.66l.92.82C95.78,61.67,96.89,60.46,98,59.26Z"/><path class="cls-29" d="M85.37,74.31l-1-.74c-1,1.32-2,2.65-2.93,4l1,.71C83.42,76.94,84.38,75.62,85.37,74.31Z"/><path class="cls-29" d="M51,155l-1.21-.19c-.26,1.62-.5,3.26-.72,4.89l1.22.17C50.53,158.24,50.76,156.62,51,155Z"/><path class="cls-29" d="M65.25,108.06l-1.11-.51q-1,2.25-2,4.53l1.13.49Q64.24,110.29,65.25,108.06Z"/><path class="cls-29" d="M52.84,145.35l-1.2-.26c-.35,1.61-.68,3.22-1,4.85l1.21.22C52.17,148.55,52.5,147,52.84,145.35Z"/><path class="cls-29" d="M49.73,164.74l-1.22-.13c-.18,1.64-.33,3.28-.46,4.93l1.23.09Q49.47,167.19,49.73,164.74Z"/><path class="cls-29" d="M61.39,117.12l-1.14-.45c-.61,1.54-1.19,3.09-1.76,4.64l1.16.42Q60.49,119.42,61.39,117.12Z"/><path class="cls-29" d="M58,126.39,56.86,126c-.52,1.57-1,3.14-1.5,4.73l1.18.36C57,129.51,57.51,128,58,126.39Z"/><path class="cls-29" d="M55.18,135.81,54,135.48q-.66,2.39-1.24,4.79l1.19.29C54.33,139,54.74,137.38,55.18,135.81Z"/><path class="cls-29" d="M190.1,6l-.28-1.2c-1.61.37-3.21.77-4.8,1.18l.31,1.19Q187.7,6.53,190.1,6Z"/><path class="cls-29" d="M229,1.24V0c-1.66,0-3.3.06-4.94.13l0,1.23C225.76,1.3,227.39,1.26,229,1.24Z"/><path class="cls-29" d="M219.22,1.64,219.14.41c-1.65.11-3.29.24-4.93.4L214.33,2C216,1.88,217.59,1.75,219.22,1.64Z"/><path class="cls-29" d="M199.73,4l-.22-1.21c-1.63.29-3.25.59-4.86.92l.25,1.21C196.5,4.59,198.11,4.29,199.73,4Z"/><path class="cls-29" d="M127.68,33.64l-.7-1c-1.36.93-2.7,1.89-4,2.86l.73,1Q125.66,35,127.68,33.64Z"/><path class="cls-29" d="M238.91.12Q236.44,0,234,0V1.23c1.64,0,3.28.06,4.91.12Z"/><path class="cls-29" d="M258.6,1.94c-1.63-.24-3.27-.46-4.91-.65l-.14,1.22c1.63.19,3.25.41,4.87.64Z"/><path class="cls-29" d="M248.77.77c-1.63-.15-3.28-.28-4.93-.39l-.08,1.23c1.64.1,3.28.23,4.9.38Z"/><path class="cls-29" d="M209.44,2.56l-.15-1.22c-1.64.19-3.27.42-4.9.66l.18,1.21C206.19,3,207.81,2.75,209.44,2.56Z"/><path class="cls-29" d="M144.37,23.36l-.59-1.08c-1.44.78-2.88,1.59-4.3,2.41l.62,1.07C141.51,24.94,142.94,24.14,144.37,23.36Z"/><path class="cls-29" d="M135.89,28.27l-.65-1q-2.1,1.29-4.16,2.64l.67,1Q133.81,29.57,135.89,28.27Z"/><path class="cls-29" d="M153.1,18.91l-.53-1.11c-1.48.71-3,1.43-4.42,2.18l.56,1.09C150.16,20.33,151.63,19.61,153.1,18.91Z"/><path class="cls-29" d="M171.24,11.44l-.41-1.16c-1.56.55-3.11,1.11-4.64,1.7l.43,1.15C168.15,12.55,169.69,12,171.24,11.44Z"/><path class="cls-29" d="M180.59,8.45l-.34-1.18q-2.37.69-4.73,1.44l.37,1.17C177.45,9.38,179,8.91,180.59,8.45Z"/><path class="cls-29" d="M268.34,3.63c-1.61-.33-3.23-.63-4.86-.91l-.21,1.21c1.62.28,3.22.58,4.83.91Z"/><path class="cls-29" d="M162.05,14.94l-.46-1.14c-1.52.63-3,1.27-4.54,1.94l.5,1.12C159,16.2,160.55,15.56,162.05,14.94Z"/></g></g></svg>